<?xml version="1.0" encoding="UTF-8"?>
<svg viewBox="0 0 48 48" xmlns="http://www.w3.org/2000/svg" xmlns:xlink="http://www.w3.org/1999/xlink">
 <defs>
  <filter id="a"/>
  <filter id="u" x="-.10612" y="-.43694" width="1.2122" height="1.8739">
   <feGaussianBlur stdDeviation="1.0557"/>
  </filter>
  <filter id="t" x="-.11901" y="-.0714" width="1.238" height="1.1428">
   <feGaussianBlur stdDeviation=".28346"/>
  </filter>
  <filter id="s" x="-.23098" y="-.11738" width="1.462" height="1.2348"/>
  <filter id="r" x="-.38709" y="-.05508" width="1.7742" height="1.1102"/>
  <linearGradient id="c">
   <stop stop-color="#7ed249" offset="0"/>
   <stop stop-color="#286325" offset="1"/>
  </linearGradient>
  <linearGradient id="b">
   <stop stop-color="#ffea00" offset="0"/>
   <stop stop-color="#ffffa4" offset="1"/>
  </linearGradient>
  <linearGradient id="q" x1="32.367" x2="14.921" y1="21.634" y2="3.5752" gradientUnits="userSpaceOnUse">
   <stop stop-color="#ffd73b" offset="0"/>
   <stop stop-color="#ee8400" offset="1"/>
  </linearGradient>
  <linearGradient id="p" x1="37.642" x2="8.0209" y1="29.111" y2="18.921" gradientUnits="userSpaceOnUse" xlink:href="#c"/>
  <linearGradient id="o" x1="25.211" x2="16.705" y1="19.495" y2="8.379" gradientUnits="userSpaceOnUse" xlink:href="#c"/>
  <linearGradient id="n" x1="20.442" x2="23.967" y1="19.597" y2="22.904" gradientUnits="userSpaceOnUse" xlink:href="#b"/>
  <linearGradient id="m" x1="22.284" x2="26.6" y1="22.443" y2="25.789" gradientUnits="userSpaceOnUse" xlink:href="#b"/>
  <linearGradient id="l" x1="29.224" x2="33.545" y1="19.729" y2="22.766" gradientUnits="userSpaceOnUse" xlink:href="#b"/>
  <linearGradient id="k" x1="31.535" x2="39.021" y1="19.411" y2="23.579" gradientUnits="userSpaceOnUse" xlink:href="#b"/>
  <linearGradient id="j" x1="28.889" x2="27.827" y1="15.63" y2="18.698" gradientUnits="userSpaceOnUse" xlink:href="#b"/>
  <linearGradient id="i" x1="31.817" x2="29.674" y1="13.092" y2="15.49" gradientUnits="userSpaceOnUse" xlink:href="#b"/>
  <linearGradient id="h" x1="34.811" x2="33.142" y1="9.3029" y2="11.701" gradientUnits="userSpaceOnUse" xlink:href="#b"/>
  <linearGradient id="g" x2="0" y1="20.834" y2="22.458" gradientUnits="userSpaceOnUse" xlink:href="#b"/>
  <linearGradient id="f" x1="22.687" x2="21.02" y1="24.598" y2="28.091" gradientUnits="userSpaceOnUse" xlink:href="#b"/>
  <linearGradient id="e" x1="19.35" x2="18.258" y1="27.313" y2="30.288" gradientUnits="userSpaceOnUse" xlink:href="#b"/>
  <linearGradient id="d" x1="17.632" x2="15.962" y1="33.219" y2="35.616" gradientUnits="userSpaceOnUse" xlink:href="#b"/>
 </defs>
 <path d="m23.803 36.553c-4.4771 0-8.1244 1.0155-8.4062 2.3125l-2-1.0625-3.2188 1.2812c0.52961 1.3314 1.5286 2.6581 5.4115 3.2674l1.3697-1.8612c1.5319 0.6269 4.02 1.0312 6.8438 1.0312 4.6608 0 10.25-0.94051 10.25-2.3125s-5.5892-2.6562-10.25-2.6562z" fill-opacity=".76863" fill-rule="evenodd" filter="url(#u)"/>
 <path d="m16.705 25.516c1.8734-11.66 9.2538-14.723 9.0947-21.811 6.9617 8.0265-1.8454 14.145-4.0421 21.474l-5.0526 0.33684z" fill="url(#o)"/>
 <path d="m37.358 6c4.0737 2.579 1.5869 11.155-3.775 19.366s-8.4368 15.699-16.067 10.717c-5.0871-3.3216-2.0122-10.809 3.3497-19.021s13.187-12.968 16.493-11.063z" fill="url(#q)" fill-rule="evenodd"/>
 <path d="m16.621 26.358c5.7456-6.7798 9.5857-14.802 18.779-20.547-10.073 5.8544-12.746 13.529-18.947 20.295l0.16842 0.25263z" fill="url(#n)"/>
 <path d="m16.032 30.737c7.1298-7.8597 11.263-17.789 21.137-24.084-11.39 9.2087-13.923 16.449-20.884 24.674l-0.25263-0.58947z" fill="url(#m)"/>
 <path d="m16.958 35.2c3.2842-2.8632 20.656-26.75 21.053-27.705-2.2792 3.9981-12.351 18.526-20.8 28.042l-0.25263-0.33684z" fill="url(#l)"/>
 <path d="m20.579 36.379c3.1387-2.8865 16.094-21.545 18.442-26.021-4.1225 9.0668-11.846 17.404-18.189 26.442l-0.25263-0.42105z" fill="url(#k)"/>
 <path d="m17.632 30.821c1.4271 2.1663 3.4876 3.4411 6.9053 4.7158-0.27421 0.54843-5.8695-1.8189-6.9053-4.7158z" fill="url(#d)"/>
 <path d="m24.125 12.562c2.3547 3.8078 8.4481 6.5067 12.812 6.0938-5.0832-0.65515-9.6915-1.9738-12.812-6.0938z" fill="url(#j)"/>
 <path d="m19.316 21.474c1.4271 2.1663 6.2666 5.2938 9.6842 6.5684-0.27421 0.54843-8.6484-3.6715-9.6842-6.5684z" fill="url(#f)"/>
 <path d="m16.789 24.337c1.4271 2.1663 5.256 4.6201 8.6737 5.8947-0.27421 0.54843-7.6379-2.9978-8.6737-5.8947z" fill="url(#e)"/>
 <path d="m10.358 38c1.5833-1.3063 3.8129-2.7017 4.6758-5.0468 0.15436-0.41948-1.4789-3.5023-0.9115-5.5166 0.8899-3.159 2.2285-10.242 1.6672-11.837 3.4906 7.2044 1.8911 8.9918 1.4274 12.958-0.34552 2.9557-0.66819 6.6634 0.21466 7.2736 8.199-2.6573 11.524-9.9011 16.881-16.626 5.1264-6.4352 7.0662-2.3473 11.235-9.5534 0.34913 4.5812-2.2084 5.6511-7.646 11.16-4.4069 4.4645-4.2827 10.328-8.2067 14.682-3.4081 2.9938-7.8188 3.2796-11.674 2.2526-1.8654 0.63543-1.8048 2.8116-2.6632 4.2526-2.3905-0.37365-4.7946-1.3881-5-4z" fill="url(#p)"/>
 <path d="m31.358 6.9053c1.4271 2.1663 3.4876 3.4411 6.9053 4.7158-0.27421 0.54843-5.8695-1.8189-6.9053-4.7158z" fill="url(#h)"/>
 <path d="m29.674 10.695c1.4271 2.1663 3.4876 3.4411 6.9053 4.7158-0.27421 0.54843-5.8695-1.8189-6.9053-4.7158z" fill="url(#i)"/>
 <path d="m21.421 16.589c1.4271 2.1663 5.5087 4.5359 8.9263 5.8105-0.27421 0.54843-7.8906-2.9136-8.9263-5.8105z" fill="url(#g)"/>
 <path d="m21.585 23.437c-0.83364-0.62523-1.4291-1.2802-1.4291-1.2802l2.5307-3.3048c-1.2096 1.9492-2.8211 3.3539-1.1016 4.585z" fill="#fff" fill-opacity=".47556" filter="url(#a)"/>
 <path d="m20.097 21.562c-0.59546-0.08932-1.0123-1.4589-1.0123-1.4589l2.0246-3.0964c-1.2394 2.1874-2.1959 3.5326-1.0123 4.5553z" fill="#fff" fill-opacity=".47556" filter="url(#a)"/>
 <path d="m24.384 19.269c-0.17864-0.41682-1.31-1.1909-1.31-1.1909l2.5307-3.3048c-1.8349 2.8126-2.434 2.9371-1.2207 4.4957z" fill="#fff" fill-opacity=".47556" filter="url(#a)"/>
 <path d="m22.598 17.721c-0.17864-0.41682-0.98251-1.4589-0.98251-1.4589l2.1139-2.888c-1.8199 2.4925-1.79 2.7452-1.1314 4.3468z" fill="#fff" fill-opacity=".47556" filter="url(#a)"/>
 <path d="m19.144 26.385c-0.41682-0.14887-1.31-1.1909-1.31-1.1909l1.9055-2.5902c-1.299 2.0088-1.9279 2.6692-0.59546 3.7812z" fill="#fff" fill-opacity=".47556" filter="url(#a)"/>
 <path d="m21.377 28.171c-0.70189-0.43393-1.2528-0.89548-1.5482-1.1909l1.7566-2.3818c-1.6191 2.0498-1.4223 2.9076-0.20841 3.5728z" fill="#fff" fill-opacity=".47556" filter="url(#a)"/>
 <path d="m24.712 29.898c-1.1314-0.56569-1.6375-1.1016-1.6375-1.1016l1.6375-2.1734c-1.3141 1.8428-1.549 2.372 0 3.275z" fill="#fff" fill-opacity=".47556" filter="url(#a)"/>
 <path d="m21.169 34.007c-0.53591-0.53591-1.31-1.1909-1.31-1.1909l2.5902-3.3346c-1.299 1.8599-2.7318 3.2348-1.2802 4.5255z" fill="#fff" fill-opacity=".47556" filter="url(#a)"/>
 <path d="m18.489 32.042c-0.17864-0.41682-0.98251-1.7268-0.98251-1.7268l1.965-2.7689c-1.3287 2.0683-1.8386 2.6394-0.98251 4.4957z" fill="#fff" fill-opacity=".47556" filter="url(#a)"/>
 <path d="m23.818 25.194c-0.68478-0.26796-1.6673-1.31-1.6673-1.31l2.233-3.3643c-1.418 2.366-2.1661 3.6219-0.56569 4.6744z" fill="#fff" fill-opacity=".47556" filter="url(#a)"/>
 <path d="m26.885 26.951c-0.74432-0.44659-1.6375-0.95273-1.6375-0.95273l2.5307-3.3048c-1.8535 2.3512-2.4042 3.4134-0.89319 4.2575z" fill="#fff" fill-opacity=".47556" filter="url(#a)"/>
 <path d="m27.004 20.728c-0.68478-0.47637-1.9055-1.1611-1.9055-1.1611l2.5307-3.3048c-1.5967 2.0088-2.2852 3.2051-0.62523 4.4659z" fill="#fff" fill-opacity=".47556" filter="url(#a)"/>
 <path d="m30.487 22.276c-0.89319-0.44659-1.8162-0.86342-1.8162-0.86342l2.5307-3.3048c-1.5967 2.0088-2.2256 3.1753-0.71455 4.1682z" fill="#fff" fill-opacity=".47556" filter="url(#a)"/>
 <path d="m33.375 17.84c-0.69519 0.09973-1.9416-0.35089-1.7864-0.50614l1.9352-2.6498c-1.39 2.1327-2.4406 3.0288-0.14887 3.1559z" fill="#fff" fill-opacity=".47556" filter="url(#a)"/>
 <path d="m29.832 16.828c-0.71455-0.26796-1.6971-0.98251-1.6971-0.98251l2.1436-2.7391c-1.7166 2.1526-1.9677 2.8896-0.44659 3.7216z" fill="#fff" fill-opacity=".47556" filter="url(#a)"/>
 <path d="m27.54 15.607c-0.62523-0.20841-1.5482-1.1016-1.5482-1.1016l2.6796-3.1857c-1.6248 2.0144-2.788 3.0615-1.1314 4.2873z" fill="#fff" fill-opacity=".47556" filter="url(#a)"/>
 <path d="m25.575 14.089c-0.17864-0.41682-1.1016-1.2802-1.1016-1.2802 0.90311-1.2627 1.8062-2.0261 2.7093-3.0071-1.7422 1.8996-2.814 2.7786-1.6077 4.2873z" fill="#fff" fill-opacity=".47556" filter="url(#a)"/>
 <path d="m29.565 9.9502c-0.17864-0.41682-0.92296-1.042-0.92296-1.042 0.66056-0.53417 1.388-1.0951 2.4414-1.7864-1.0905 0.99649-2.4936 1.3889-1.5184 2.8284z" fill="#fff" fill-opacity=".47556" filter="url(#a)"/>
 <path d="m30.666 11.826c-0.17864-0.41682-0.98251-1.2207-0.98251-1.2207 0.70528-0.92164 1.5459-1.5725 2.3223-2.3521-1.7158 2.1576-2.6722 2.0439-1.3398 3.5728z" fill="#fff" fill-opacity=".47556" filter="url(#a)"/>
 <path d="m32.601 13.523c-0.17864-0.41682-1.31-1.1909-1.31-1.1909l2.5307-3.3048c-1.5967 2.0088-2.5531 3.2051-1.2207 4.4957z" fill="#fff" fill-opacity=".47556" filter="url(#a)"/>
 <path d="m35.638 14.952c-0.655-0.20841-1.7268-0.89319-1.7268-0.89319l2.0246-2.888c-1.299 2.1576-2.2256 3.0562-0.29773 3.7812z" fill="#fff" fill-opacity=".47556" filter="url(#a)"/>
 <path d="m37.693 15.845c-0.68478-0.35728-0.98251-0.62523-0.98251-0.62523 0.1031-0.82169 0.76602-1.83 1.578-2.888-1.5032 2.7128-1.7709 2.5879-0.59546 3.5132z" fill="#fff" fill-opacity=".47556" filter="url(#a)"/>
 <path d="m37.216 11.171c-0.41682-0.26796-0.98251-0.53591-0.98251-0.53591l1.6077-2.3818c-1.0805 1.4234-1.6277 2.3144-0.62523 2.9178z" fill="#fff" fill-opacity=".47556" filter="url(#a)"/>
 <path d="m35.46 10.337c-0.71455-0.3275-1.31-0.89319-1.31-0.89319 0.20311-0.36205 1.5142-1.3397 2.3521-2.0543-2.5792 2.0088-2.1065 2.4012-1.042 2.9475z" fill="#fff" fill-opacity=".47556" filter="url(#a)"/>
 <path d="m33.256 9.0272c-0.17864-0.31901-0.77409-0.673-0.77409-0.95273 0.44428-0.48819 1.4169-1.1085 2.1436-1.6673-1.8051 1.2347-2.0768 1.6569-1.3696 2.62z" fill="#fff" fill-opacity=".47556" filter="url(#a)"/>
 <path d="m32.0952,7.77679c-.17864-.41682-.50614-.80387-.50614-.80387 .5116-.3801 1.28765-.6231 2.41161-1.07183-1.77532.90717-2.55313.853-1.90547,1.87569z" fill="#fff" fill-opacity=".47556" filter="url(#a)"/>
 <path d="m11.85 40.2c-0.5089-0.43473-0.99412-0.92866-1.1909-2.1436l1.8459-1.4886c-1.5256 1.3851-1.5062 2.5641-0.655 3.6323z" fill="#fff" fill-opacity=".88889" filter="url(#s)"/>
 <path d="m15.006 31.089c-0.655-2.2627 0.29773-7.741 0.29773-7.741-0.42987 3.6439-2.0648 5.5724-0.29773 7.741z" fill="#fff" fill-opacity=".88889" filter="url(#r)"/>
 <path d="m21.734 13.642c1.508-1.6618 4.7995-6.6232 4.1682-9.5273l1.5482 2.5605c-1.0336 2.057-3.4757 4.9369-5.7164 6.9669z" fill="#fff" fill-opacity=".49554" filter="url(#t)"/>
</svg>
