<svg xmlns="http://www.w3.org/2000/svg" version="1.1" xmlns:xlink="http://www.w3.org/1999/xlink" xmlns:svgjs="http://svgjs.dev/svgjs" width="1500" height="1500" viewBox="0 0 1500 1500"><rect width="1500" height="1500" fill="#ffbe79"></rect><g transform="matrix(0.6666666666666666,0,0,0.6666666666666666,250.4048582995951,250.40588057230616)"><svg viewBox="0 0 247 247" data-background-color="#ffbe79" preserveAspectRatio="xMidYMid meet" height="1500" width="1500" xmlns="http://www.w3.org/2000/svg" xmlns:xlink="http://www.w3.org/1999/xlink"><g id="tight-bounds" transform="matrix(1,0,0,1,-0.09999999999999432,-0.0997474986403688)"><svg viewBox="0 0 247.2 247.2" height="247.2" width="247.2"><g><svg viewBox="0 0 247.2 247.2" height="247.2" width="247.2"><g><svg viewBox="0 0 247.2 247.2" height="247.2" width="247.2"><g><svg viewBox="0 0 247.2 247.2" height="247.2" width="247.2"><g id="textblocktransform"><svg viewBox="0 0 247.2 247.2" height="247.2" width="247.2" id="textblock"><g><svg viewBox="0 0 247.2 247.2" height="247.2" width="247.2"><g transform="matrix(1,0,0,1,50.768001537785594,50.768001537785594)"><svg viewBox="0 0 145.6639969244288 145.6639969244288" height="145.6639969244288" width="145.6639969244288"><g><circle r="73" cx="72.8319984622144" cy="72.8319984622144" fill="#2ecc40" data-fill-palette-color="accent"></circle><svg xmlns="http://www.w3.org/2000/svg" xmlns:xlink="http://www.w3.org/1999/xlink" version="1.1" x="21.849599538664318" y="21.849599538664318" viewBox="4.665191146291984 9.987320725872111 82.47403933824934 70.01267927412789" style="enable-background:new 0 0 91 91;" xml:space="preserve" height="101.96479784710016" width="101.96479784710016" class="icon-xg-0" data-fill-palette-color="quaternary" id="xg-0"><g fill="#ffbe79" data-fill-palette-color="quaternary"><path d="M86.1 57.2c-0.4-0.1-0.8-0.1-1.1 0.1-1.4 0.3-6 0.5-7.6-0.6-2.3-3.4-6.5-7.9-13.6-10.1-10-3.2-18.7-3.6-19-3.6-1.8-0.1-5 0.4-6.2 3-0.7 1.6-0.6 3.5 0.2 5 0.8 1.4 2.1 2.4 3.6 2.7 2.7 0.5 5 1.3 6.9 2.2l-11.5-0.7-12.3-5.8-4.3-3.1c-0.6-0.4-3.7-2.6-6.1-1.5-1.8 0.8-2.4 2.4-2.6 3.9-0.2 0-0.5-0.1-0.7-0.1-1.8-0.4-5.2-0.2-6.5 2.7-1.9 3.8 0.9 6.2 2.7 7.3 4.7 2.8 37.1 14.5 38.5 15 0.1 0 0.2 0 0.2 0.1L72.3 79c0.1 0 0.1 0 0.2 0l11.3 1c0 0 0.1 0 0.1 0 0.9 0 1.6-0.7 1.7-1.5 0.1-0.9-0.6-1.7-1.5-1.8l-11.2-0.9-25.5-5.3C38 67 13.3 57.8 9.6 55.7c-2.2-1.3-1.7-2.2-1.4-2.9l0.1-0.2c0.5-1.1 2.8-0.7 2.8-0.7 0 0 0.1 0 0.1 0 3.5 0.5 14 4.5 17.8 6 0.2 0.1 0.3 0.1 0.5 0.1l7.5 0.5c0.1 0 0.3 0 0.4 0 0 0 0.1 0 0.1 0l18.3 1.1c0.7 0 1.4-0.4 1.7-1s0.1-1.4-0.4-1.9c-0.2-0.2-5.3-4.7-14.1-6.3-0.5-0.1-1-0.5-1.3-1-0.3-0.6-0.4-1.4-0.1-2.1 0.4-0.8 2.1-1 2.9-1 0.1 0 8.6 0.4 18.2 3.4 6.2 2 9.9 5.9 11.8 8.8 0.1 0.1 0.1 0.2 0.2 0.3 1.2 1.8 1.7 3.2 1.8 3.4 0.3 0.9 1.3 1.3 2.1 1 0.9-0.3 1.3-1.3 1-2.1 0 0-0.1-0.2-0.2-0.5 0.8 0.1 1.5 0.1 2.2 0.1 2.3 0 4.3-0.3 4.6-0.5 0.6-0.3 1-1 0.9-1.7C87.3 58 86.7 57.4 86.1 57.2zM16.5 47.9c0.4-0.1 1.7 0.4 2.7 1.1l4.4 3.2c0 0 0 0 0 0-2.6-0.9-5.4-2-7.9-2.7C15.7 49 15.8 48.2 16.5 47.9z" fill="#ffbe79" data-fill-palette-color="quaternary"></path><path d="M45.1 25.4c2.8-4.3 3.6-9.5 2.3-14.2-0.2-0.8-0.9-1.3-1.8-1.2-4.6 0.4-8.9 3.1-11.7 7.4 0 0 0 0 0 0-2.8 4.3-3.6 9.4-2.3 14.2 0 0.1 0.1 0.1 0.1 0.2-0.1 0.4-0.2 0.8-0.3 1.2-1.1-1.6-2.5-3.1-4.1-4.3 0 0 0 0 0 0-4-3-8.9-4.2-13.5-3.4-0.8 0.1-1.4 0.9-1.4 1.8 0.2 4.4 2.7 8.7 6.7 11.7 3.2 2.4 7 3.6 10.7 3.6 0.4 0 0.8 0 1.3-0.1 0.2 1.6 0.6 3.2 1.2 5 0.2 0.7 0.9 1.1 1.6 1.1 0.2 0 0.4 0 0.5-0.1 0.9-0.3 1.4-1.3 1.1-2.1-1.8-5.3-1.6-9.9-0.6-13.6C39 31.8 42.6 29.3 45.1 25.4zM36.8 19.3c1.9-2.9 4.7-5 7.7-5.6 0.5 3.4-0.3 7-2.2 10-1.5 2.3-3.5 4-5.8 5 1.9-3.7 4.3-5.9 4.5-6 0.7-0.6 0.8-1.7 0.2-2.4-0.6-0.7-1.7-0.8-2.4-0.2-0.1 0-2.2 1.9-4.2 5.2C34.9 23.1 35.6 21.1 36.8 19.3zM21.1 36c-2.7-2-4.5-4.7-5.1-7.6 3.2-0.1 6.5 0.9 9.3 2.9l0 0c2.7 2 4.5 4.7 5.1 7.6C27.2 39.1 23.9 38.1 21.1 36z" fill="#ffbe79" data-fill-palette-color="quaternary"></path></g></svg></g></svg></g><g><path d="M17.647 78.93l-4.107-1.239c-0.801 0.937-1.407 2.001-1.818 3.191v0c-0.829 2.405-0.614 4.649 0.644 6.732 1.256 2.09 3.585 3.721 6.987 4.893 3.402 1.173 6.053 1.216 7.953 0.131v0c1.32-0.731 2.306-2.044 2.959-3.941v0c0.416-1.208 0.697-2.474 0.841-3.797 0.148-1.315 0.172-2.239 0.072-2.773v0l1.715 0.092c0.291 1.147 0.152 2.93-0.418 5.347v0c-0.148 0.712-0.353 1.445-0.613 2.201-0.261 0.756-0.69 1.6-1.288 2.531-0.594 0.939-1.414 1.718-2.458 2.335v0c-2.361 1.398-5.499 1.422-9.416 0.072-3.91-1.348-6.614-3.319-8.112-5.915-1.495-2.602-1.73-5.391-0.705-8.365v0c0.572-1.661 1.395-2.972 2.468-3.934v0c0.383-0.367 0.758-0.63 1.125-0.787v0l4.62 1.592z" fill="#000000" data-fill-palette-color="primary"></path><path d="M26.319 62.834l1.35 1.75c-0.348 0.213-0.62 0.497-0.816 0.853-0.195 0.356-0.296 0.559-0.3 0.609v0c-0.41 0.747-0.553 1.648-0.429 2.703 0.13 1.058 0.381 2.037 0.755 2.938v0l10.326 5.666-1.054 1.922-14.792-8.116 0.908-2.002 3.31 1.816c-0.525-1.237-0.834-2.214-0.927-2.931v0c-0.192-1.339-0.068-2.452 0.374-3.339v0c0.04-0.128 0.147-0.349 0.32-0.665 0.173-0.316 0.498-0.717 0.975-1.204z" fill="#000000" data-fill-palette-color="primary"></path><path d="M38.473 66.954v0c-1.105-0.328-2.235-0.925-3.39-1.79v0c-2.214-1.658-3.492-3.582-3.833-5.771-0.333-2.19 0.202-4.222 1.605-6.095v0c2.197-2.933 4.827-3.968 7.891-3.105v0c1.116 0.304 2.251 0.888 3.405 1.752v0c2.214 1.658 3.492 3.582 3.834 5.771 0.338 2.194-0.194 4.228-1.597 6.101v0c-2.197 2.933-4.835 3.978-7.915 3.137zM36.209 63.268c1.658 1.242 3.261 1.775 4.809 1.6 1.553-0.171 2.835-0.931 3.845-2.279 1.01-1.348 1.37-2.835 1.081-4.461-0.288-1.616-1.261-3.045-2.918-4.287-1.658-1.242-3.257-1.78-4.798-1.616-1.54 0.165-2.819 0.926-3.837 2.286-1.018 1.359-1.385 2.849-1.1 4.47 0.293 1.62 1.266 3.049 2.918 4.287z" fill="#000000" data-fill-palette-color="primary"></path><path d="M60.237 45.569c-0.034 1.047-0.256 2.018-0.665 2.914-0.414 0.891-0.844 1.577-1.291 2.059-0.442 0.477-0.893 0.931-1.352 1.361-0.464 0.435-1.004 0.865-1.621 1.29v0l5.768 6.156-1.486 1.621-16.699-17.822c0.256-0.455 0.647-1.15 1.174-2.084 0.531-0.929 1.22-1.79 2.066-2.583 0.842-0.789 1.639-1.401 2.39-1.835 0.747-0.439 1.567-0.71 2.461-0.81v0c2.121-0.2 4.213 0.8 6.274 3 2.062 2.2 3.055 4.445 2.981 6.733zM45.412 42.632l8.719 9.305c0.6-0.347 1.18-0.782 1.74-1.307v0c1.607-1.506 2.4-3.143 2.379-4.91-0.021-1.768-0.839-3.512-2.452-5.234-1.618-1.727-3.214-2.544-4.79-2.451v0c-1.106 0.075-2.147 0.57-3.123 1.484-0.976 0.914-1.8 1.952-2.473 3.113z" fill="#000000" data-fill-palette-color="primary"></path><path d="M74.803 33.475v0c-0.833-0.798-1.564-1.845-2.195-3.141v0c-1.21-2.487-1.466-4.783-0.769-6.886 0.706-2.1 2.111-3.662 4.215-4.686v0c3.295-1.603 6.108-1.32 8.438 0.849v0c0.853 0.78 1.595 1.819 2.227 3.115v0c1.21 2.487 1.466 4.783 0.769 6.886-0.703 2.106-2.107 3.671-4.211 4.695v0c-3.295 1.603-6.12 1.326-8.474-0.832zM74.476 29.162c0.906 1.863 2.087 3.07 3.545 3.623 1.46 0.558 2.947 0.469 4.462-0.268 1.515-0.737 2.515-1.894 3.001-3.472 0.483-1.569 0.272-3.285-0.634-5.147-0.906-1.863-2.082-3.073-3.526-3.631-1.445-0.558-2.931-0.466-4.458 0.276-1.527 0.743-2.535 1.9-3.024 3.472-0.48 1.575-0.269 3.291 0.634 5.147z" fill="#000000" data-fill-palette-color="primary"></path><path d="M103.939 24.418c-0.509 0.915-1.151 1.678-1.924 2.286-0.776 0.603-1.472 1.016-2.09 1.24-0.612 0.222-1.22 0.419-1.825 0.592-0.611 0.174-1.289 0.309-2.032 0.405v0l2.313 8.113-2.063 0.762-6.695-23.488c0.436-0.288 1.102-0.726 1.997-1.316 0.897-0.583 1.904-1.033 3.019-1.351 1.109-0.316 2.098-0.496 2.965-0.538 0.865-0.049 1.718 0.086 2.559 0.405v0c1.978 0.793 3.38 2.639 4.207 5.539 0.827 2.9 0.683 5.35-0.431 7.351zM92.101 15.022l3.496 12.264c0.692-0.034 1.407-0.156 2.144-0.366v0c2.118-0.604 3.572-1.696 4.362-3.277 0.79-1.581 0.861-3.507 0.214-5.777-0.649-2.276-1.694-3.733-3.137-4.371v0c-1.018-0.439-2.17-0.475-3.456-0.109-1.286 0.367-2.494 0.912-3.623 1.636z" fill="#000000" data-fill-palette-color="primary"></path><path d="M117.515 22.307l0.645 1.75c-0.35 0.456-1.049 0.751-2.096 0.888v0c-1.475 0.192-2.52-0.058-3.132-0.752v0c-0.979-0.712-1.559-1.77-1.742-3.174v0l-1.344-10.305-1.872 0.244 0.05-1.98 1.569-0.204-0.43-3.306 2.147-0.488 0.458 3.51 3.88-0.506 0.253 1.941-3.88 0.505 1.413 10.842c0.169 1.293 0.922 1.853 2.261 1.679v0c0.585-0.076 1.192-0.291 1.82-0.644z" fill="#000000" data-fill-palette-color="primary"></path><path d="M122.584 7.627l2.185-0.249 0.64 17.027-2.191 0.082zM123.426 3.079c-0.452 0.017-0.801-0.117-1.048-0.403-0.247-0.286-0.379-0.652-0.395-1.097-0.017-0.452 0.1-0.824 0.351-1.115 0.245-0.291 0.593-0.445 1.045-0.463 0.445-0.017 0.814 0.11 1.107 0.382 0.292 0.271 0.448 0.656 0.466 1.153 0.018 0.491-0.118 0.867-0.41 1.128-0.292 0.26-0.664 0.399-1.116 0.415z" fill="#000000" data-fill-palette-color="primary"></path><path d="M138.6 10.685v0c-1.256-0.105-2.66 0.123-4.211 0.685v0l-1.862 13.639-2.172-0.297 2.281-16.717 2.195 0.131-0.255 1.87c1.649-0.933 3.179-1.336 4.591-1.209v0c2.364 0.323 3.91 1.136 4.639 2.439v0c1.848-0.886 3.565-1.253 5.152-1.102v0c1.364 0.186 2.39 0.495 3.079 0.926 0.688 0.438 1.23 0.995 1.627 1.671 0.396 0.683 0.519 1.579 0.367 2.69v0l-1.679 12.304-2.173-0.297 1.601-11.729c0.113-0.825 0.008-1.487-0.314-1.988v0c-0.576-0.919-1.5-1.465-2.773-1.639v0c-1.331-0.182-2.812 0.026-4.441 0.625v0c0.05 0.457 0.043 0.919-0.021 1.386v0l-1.68 12.304-2.172-0.296 1.601-11.73c0.113-0.825 0.021-1.486-0.275-1.982v0c-0.595-0.921-1.63-1.483-3.105-1.684z" fill="#000000" data-fill-palette-color="primary"></path><path d="M162.746 13.546l2.139 0.508-5.185 16.232-2.089-0.668zM165.083 9.556c-0.431-0.138-0.714-0.383-0.848-0.736-0.135-0.353-0.135-0.741 0.001-1.166 0.138-0.431 0.374-0.741 0.709-0.929 0.329-0.191 0.709-0.217 1.141-0.08 0.425 0.136 0.728 0.381 0.91 0.735 0.183 0.354 0.198 0.769 0.047 1.243-0.15 0.468-0.406 0.775-0.769 0.921-0.363 0.146-0.76 0.149-1.191 0.012z" fill="#000000" data-fill-palette-color="primary"></path><path d="M170.384 18.626l0.804-1.784 11.145 5.228-0.555 1.901-15.029 7.264 9.925 4.656-0.59 1.884-12.551-5.888 0.555-1.901 15.162-7.201z" fill="#000000" data-fill-palette-color="primary"></path><path d="M186.821 28.852l0.408-1.675c2.712 0.38 4.846 1.063 6.402 2.05v0c1.206 0.826 2.033 1.619 2.482 2.38 0.452 0.755 0.697 1.546 0.734 2.373 0.028 0.829-0.296 1.736-0.97 2.721v0l-6.824 9.961-1.809-1.24 0.723-1.054c-3.075-0.962-4.975-1.692-5.7-2.188v0c-0.038-0.026-0.065-0.044-0.081-0.056v0c-1.671-1.145-2.462-2.437-2.373-3.878v0c0.034-0.525 0.155-0.974 0.364-1.348 0.214-0.37 0.404-0.677 0.57-0.92v0c0.456-0.665 1.125-1.085 2.007-1.259 0.882-0.174 1.749-0.105 2.599 0.207v0c1.442 0.527 3.693 1.66 6.754 3.399v0l1.544-2.255c1.385-2.022 1.021-3.758-1.093-5.206v0c-1.487-1.019-3.4-1.689-5.737-2.012zM182.295 37.372v0c-0.915 1.336-0.456 2.631 1.378 3.887v0c1.465 1.004 3.14 1.686 5.022 2.046v0l2.723-3.974c-3.171-1.576-5.176-2.489-6.015-2.738v0c-1.424-0.427-2.46-0.167-3.108 0.779z" fill="#000000" data-fill-palette-color="primary"></path><path d="M198.943 52.388l-0.919 1.624c-0.574 0.027-1.252-0.314-2.032-1.024v0c-1.101-1.001-1.585-1.959-1.452-2.875v0c-0.09-1.207 0.342-2.334 1.294-3.382v0l6.992-7.689-1.397-1.27 1.542-1.243 1.171 1.065 2.243-2.466 1.761 1.323-2.381 2.619 2.895 2.632-1.317 1.448-2.895-2.633-7.355 8.089c-0.878 0.965-0.817 1.902 0.182 2.811v0c0.436 0.397 0.992 0.721 1.668 0.971z" fill="#000000" data-fill-palette-color="primary"></path><path d="M213.418 46.764l1.603 1.505-12.576 11.497-1.48-1.618zM217.432 44.466c-0.305-0.334-0.429-0.687-0.37-1.061 0.058-0.373 0.252-0.71 0.581-1.011 0.334-0.305 0.693-0.456 1.078-0.452 0.381-0.002 0.723 0.165 1.029 0.498 0.301 0.329 0.442 0.693 0.424 1.091-0.018 0.398-0.211 0.765-0.578 1.101-0.363 0.332-0.738 0.47-1.125 0.416-0.387-0.054-0.734-0.249-1.039-0.582z" fill="#000000" data-fill-palette-color="primary"></path><path d="M209.33 61.733v0c0.671-0.937 1.604-1.81 2.798-2.619v0c2.29-1.551 4.526-2.131 6.707-1.739 2.179 0.401 3.925 1.57 5.237 3.508v0c2.054 3.034 2.174 5.858 0.358 8.473v0c-0.651 0.956-1.574 1.838-2.768 2.646v0c-2.29 1.551-4.526 2.131-6.707 1.739-2.184-0.397-3.933-1.564-5.245-3.502v0c-2.054-3.034-2.181-5.869-0.38-8.506zM213.553 60.798c-1.715 1.161-2.743 2.502-3.083 4.022-0.345 1.524-0.046 2.984 0.899 4.379 0.945 1.395 2.232 2.221 3.863 2.478 1.622 0.256 3.29-0.197 5.005-1.358 1.715-1.161 2.746-2.497 3.094-4.007 0.347-1.51 0.045-2.967-0.907-4.373-0.952-1.406-2.24-2.239-3.866-2.5-1.627-0.252-3.296 0.201-5.005 1.359z" fill="#000000" data-fill-palette-color="primary"></path><path d="M232.109 74.917l-1.846 0.833c1.822 1.026 3.073 2.213 3.752 3.56v0c0.563 1.249 0.846 2.282 0.849 3.101-0.006 0.815-0.19 1.571-0.552 2.266-0.368 0.698-1.063 1.278-2.085 1.739v0l-11.32 5.106-0.905-2.007 10.79-4.868c0.759-0.342 1.272-0.768 1.539-1.276v0c0.462-1 0.388-2.178-0.224-3.534v0c-0.642-1.264-1.678-2.436-3.108-3.517v0l-12.422 5.604-0.902-1.999 15.38-6.938z" fill="#000000" data-fill-palette-color="primary"></path><path d="M33.208 167.509l3.998-1.554c0.054-1.232-0.124-2.443-0.534-3.633v0c-0.829-2.405-2.38-4.04-4.655-4.906-2.277-0.872-5.116-0.722-8.518 0.45-3.402 1.173-5.517 2.771-6.344 4.797v0c-0.589 1.389-0.557 3.031 0.096 4.927v0c0.416 1.208 0.976 2.378 1.678 3.509 0.693 1.127 1.244 1.87 1.652 2.228v0l-1.408 0.985c-0.936-0.724-1.924-2.214-2.965-4.469v0c-0.322-0.652-0.613-1.356-0.874-2.112-0.261-0.756-0.442-1.685-0.544-2.787-0.111-1.106 0.055-2.224 0.498-3.354v0c0.998-2.556 3.456-4.508 7.372-5.858 3.91-1.348 7.255-1.46 10.033-0.338 2.781 1.129 4.684 3.18 5.709 6.155v0c0.572 1.661 0.732 3.2 0.479 4.619v0c-0.076 0.525-0.209 0.963-0.4 1.313v0l-4.62 1.592z" fill="#000000" data-fill-palette-color="primary"></path><path d="M40.214 181.344l-2.201 0.199c0.008-0.408-0.086-0.79-0.281-1.147-0.195-0.356-0.313-0.55-0.353-0.58v0c-0.41-0.747-1.093-1.352-2.049-1.814-0.962-0.459-1.923-0.773-2.883-0.942v0l-10.327 5.666-1.054-1.922 14.792-8.116 1.201 1.842-3.31 1.816c1.326 0.222 2.316 0.487 2.969 0.793v0c1.233 0.557 2.105 1.26 2.616 2.109v0c0.086 0.102 0.216 0.312 0.389 0.628 0.173 0.316 0.337 0.806 0.491 1.468z" fill="#000000" data-fill-palette-color="primary"></path><path d="M31.611 189.989v0c0.626-0.968 1.516-1.885 2.67-2.75v0c2.214-1.658 4.419-2.344 6.616-2.057 2.196 0.296 3.995 1.381 5.398 3.253v0c2.197 2.933 2.451 5.748 0.762 8.447v0c-0.605 0.986-1.484 1.911-2.638 2.775v0c-2.214 1.658-4.419 2.344-6.616 2.057-2.201-0.292-4.003-1.375-5.406-3.248v0c-2.197-2.933-2.459-5.758-0.786-8.477zM35.784 188.852c-1.658 1.242-2.62 2.63-2.887 4.166-0.272 1.539 0.097 2.983 1.107 4.33 1.01 1.348 2.336 2.112 3.977 2.292 1.632 0.178 3.277-0.354 4.934-1.596 1.658-1.242 2.624-2.625 2.899-4.15 0.275-1.524-0.097-2.966-1.114-4.325-1.018-1.359-2.345-2.13-3.981-2.313-1.637-0.174-3.282 0.358-4.935 1.596z" fill="#000000" data-fill-palette-color="primary"></path><path d="M51.699 215.345c-1.047 0.034-2.031-0.124-2.951-0.475-0.916-0.355-1.629-0.74-2.138-1.154-0.505-0.41-0.987-0.83-1.446-1.261-0.464-0.435-0.928-0.946-1.393-1.534v0l-5.768 6.156-1.714-1.377 16.699-17.822c0.471 0.226 1.19 0.571 2.156 1.036 0.961 0.47 1.865 1.101 2.712 1.894 0.842 0.789 1.504 1.544 1.986 2.266 0.487 0.717 0.81 1.518 0.969 2.403v0c0.337 2.104-0.525 4.256-2.587 6.456-2.062 2.2-4.237 3.338-6.525 3.412zM53.667 200.36l-8.719 9.306c0.385 0.576 0.857 1.127 1.417 1.651v0c1.607 1.506 3.292 2.191 5.054 2.055 1.762-0.136 3.45-1.065 5.064-2.788 1.618-1.727 2.33-3.373 2.135-4.938v0c-0.147-1.099-0.708-2.106-1.684-3.02-0.976-0.914-2.065-1.67-3.267-2.266z" fill="#000000" data-fill-palette-color="primary"></path><path d="M71.053 226.037v0c0.114-1.147 0.486-2.37 1.116-3.667v0c1.21-2.487 2.857-4.106 4.943-4.856 2.088-0.741 4.184-0.6 6.288 0.424v0c3.295 1.603 4.809 3.99 4.542 7.162v0c-0.087 1.153-0.446 2.378-1.077 3.675v0c-1.21 2.487-2.857 4.106-4.942 4.856-2.091 0.747-4.188 0.609-6.293-0.415v0c-3.295-1.603-4.821-3.996-4.577-7.179zM74.244 223.117c-0.906 1.863-1.127 3.538-0.662 5.025 0.462 1.493 1.45 2.608 2.965 3.345 1.515 0.737 3.043 0.81 4.585 0.218 1.533-0.588 2.752-1.814 3.658-3.677 0.906-1.863 1.133-3.535 0.68-5.016-0.453-1.481-1.443-2.593-2.97-3.336-1.527-0.743-3.059-0.821-4.598-0.235-1.536 0.594-2.755 1.82-3.658 3.676z" fill="#000000" data-fill-palette-color="primary"></path><path d="M100.517 239.393c-0.915 0.509-1.862 0.819-2.841 0.929-0.977 0.103-1.787 0.087-2.43-0.049-0.637-0.134-1.258-0.287-1.863-0.459-0.611-0.174-1.258-0.417-1.94-0.727v0l-2.312 8.113-2.155-0.44 6.695-23.488c0.522-0.015 1.319-0.036 2.391-0.065 1.07-0.022 2.162 0.126 3.278 0.444 1.109 0.316 2.044 0.685 2.803 1.105 0.761 0.415 1.415 0.979 1.961 1.694v0c1.263 1.716 1.481 4.024 0.654 6.924-0.827 2.9-2.24 4.906-4.241 6.019zM95.411 225.168l-3.496 12.264c0.606 0.336 1.278 0.61 2.016 0.82v0c2.118 0.604 3.93 0.442 5.434-0.485 1.505-0.927 2.581-2.526 3.227-4.796 0.649-2.276 0.528-4.065-0.361-5.368v0c-0.634-0.91-1.593-1.548-2.879-1.914-1.286-0.367-2.6-0.54-3.941-0.521z" fill="#000000" data-fill-palette-color="primary"></path><path d="M115.919 241.741l0.174 1.857c-0.456 0.35-1.207 0.457-2.253 0.321v0c-1.475-0.192-2.42-0.702-2.835-1.529v0c-0.763-0.939-1.054-2.11-0.87-3.515v0l1.343-10.305-1.872-0.244 0.555-1.901 1.57 0.204 0.431-3.305 2.201 0.079-0.458 3.51 3.881 0.506-0.253 1.94-3.881-0.506-1.413 10.842c-0.169 1.293 0.417 2.027 1.756 2.202v0c0.585 0.076 1.226 0.024 1.924-0.156z" fill="#000000" data-fill-palette-color="primary"></path><path d="M123.205 227.649l2.198-0.085-0.641 17.027-2.191-0.082zM124.387 223.177c-0.452-0.017-0.79-0.177-1.015-0.481-0.225-0.304-0.329-0.678-0.312-1.123 0.017-0.452 0.162-0.814 0.434-1.086 0.266-0.272 0.625-0.4 1.077-0.383 0.445 0.017 0.804 0.171 1.075 0.464 0.271 0.292 0.397 0.687 0.379 1.185-0.018 0.491-0.183 0.856-0.494 1.093-0.311 0.238-0.692 0.348-1.144 0.331z" fill="#000000" data-fill-palette-color="primary"></path><path d="M136.866 228.414v0c-1.238 0.235-2.529 0.832-3.874 1.789v0l1.862 13.639-2.172 0.296-2.282-16.717 2.15-0.462 0.255 1.871c1.339-1.34 2.705-2.139 4.099-2.396v0c2.364-0.323 4.072 0.046 5.123 1.107v0c1.543-1.348 3.099-2.163 4.667-2.443v0c1.364-0.186 2.435-0.164 3.215 0.067 0.78 0.238 1.452 0.629 2.016 1.174 0.565 0.551 0.923 1.382 1.074 2.493v0l1.68 12.304-2.173 0.296-1.601-11.729c-0.113-0.825-0.391-1.435-0.835-1.831v0c-0.801-0.731-1.838-1.009-3.111-0.836v0c-1.331 0.182-2.702 0.779-4.112 1.792v0c0.171 0.427 0.288 0.874 0.352 1.341v0l1.68 12.304-2.173 0.297-1.601-11.729c-0.113-0.825-0.378-1.437-0.796-1.837v0c-0.821-0.728-1.968-0.992-3.443-0.79z" fill="#000000" data-fill-palette-color="primary"></path><path d="M157.713 222.502l2.038-0.826 5.185 16.231-2.089 0.667zM157.305 217.895c-0.431 0.138-0.804 0.102-1.118-0.107-0.315-0.209-0.54-0.526-0.676-0.951-0.138-0.431-0.124-0.82 0.04-1.169 0.158-0.346 0.452-0.588 0.883-0.725 0.425-0.136 0.814-0.112 1.168 0.07 0.354 0.183 0.607 0.511 0.759 0.986 0.15 0.468 0.119 0.867-0.093 1.196-0.211 0.329-0.533 0.562-0.963 0.7z" fill="#000000" data-fill-palette-color="primary"></path><path d="M165.022 221.747l-0.858-1.759 11.145-5.228 1.107 1.642-4.021 16.2 9.925-4.656 1.071 1.659-12.551 5.888-1.107-1.642 4.155-16.263z" fill="#000000" data-fill-palette-color="primary"></path><path d="M181.364 214.985l-1.414-0.986c1.333-2.391 2.741-4.134 4.224-5.23v0c1.206-0.826 2.244-1.311 3.115-1.454 0.867-0.149 1.693-0.091 2.479 0.173 0.783 0.274 1.512 0.903 2.186 1.887v0l6.824 9.961-1.809 1.239-0.723-1.055c-2.008 2.52-3.375 4.028-4.099 4.525v0c-0.038 0.026-0.065 0.044-0.081 0.055v0c-1.671 1.145-3.162 1.415-4.473 0.812v0c-0.477-0.221-0.853-0.496-1.126-0.826-0.268-0.333-0.485-0.621-0.652-0.864v0c-0.456-0.665-0.605-1.44-0.449-2.326 0.156-0.886 0.533-1.669 1.132-2.349v0c1.013-1.155 2.882-2.844 5.609-5.07v0l-1.545-2.255c-1.385-2.022-3.135-2.309-5.25-0.861v0c-1.487 1.019-2.803 2.56-3.948 4.624zM187.674 222.282v0c0.915 1.336 2.289 1.376 4.123 0.12v0c1.465-1.004 2.706-2.319 3.721-3.944v0l-2.722-3.975c-2.615 2.387-4.19 3.927-4.726 4.62v0c-0.912 1.173-1.045 2.233-0.396 3.179z" fill="#000000" data-fill-palette-color="primary"></path><path d="M207.251 208.55l1.529 1.068c-0.027 0.574-0.431 1.216-1.212 1.926v0c-1.101 1.001-2.101 1.392-3 1.174v0c-1.21-0.025-2.291-0.561-3.243-1.609v0l-6.992-7.689-1.397 1.27-1.091-1.653 1.171-1.065-2.242-2.466 1.483-1.628 2.381 2.619 2.896-2.633 1.316 1.448-2.895 2.633 7.356 8.089c0.878 0.965 1.816 0.993 2.814 0.085v0c0.436-0.397 0.812-0.92 1.126-1.569z" fill="#000000" data-fill-palette-color="primary"></path><path d="M201.212 193.88l1.356-1.731 12.576 11.497-1.479 1.618zM198.565 190.087c-0.305 0.334-0.646 0.488-1.023 0.463-0.377-0.025-0.73-0.188-1.059-0.488-0.334-0.305-0.516-0.65-0.548-1.033-0.036-0.379 0.099-0.735 0.405-1.069 0.301-0.329 0.65-0.502 1.048-0.52 0.398-0.018 0.781 0.141 1.149 0.477 0.363 0.332 0.534 0.693 0.515 1.083-0.02 0.391-0.182 0.753-0.487 1.087z" fill="#000000" data-fill-palette-color="primary"></path><path d="M216.43 194.876v0c-1.12-0.275-2.277-0.817-3.471-1.626v0c-2.29-1.551-3.659-3.412-4.105-5.582-0.437-2.172 0-4.227 1.312-6.164v0c2.054-3.034 4.633-4.194 7.735-3.479v0c1.129 0.25 2.291 0.779 3.484 1.588v0c2.29 1.551 3.659 3.412 4.105 5.582 0.442 2.176 0.008 4.232-1.304 6.17v0c-2.054 3.034-4.64 4.204-7.756 3.511zM213.993 191.302c1.715 1.161 3.342 1.618 4.88 1.369 1.543-0.245 2.787-1.065 3.731-2.46 0.945-1.395 1.233-2.897 0.867-4.507-0.365-1.601-1.405-2.982-3.12-4.143-1.715-1.161-3.338-1.623-4.868-1.385-1.531 0.238-2.772 1.06-3.724 2.465-0.952 1.406-1.247 2.912-0.886 4.518 0.37 1.604 1.41 2.985 3.12 4.143z" fill="#000000" data-fill-palette-color="primary"></path><path d="M216.729 169.947l1.847 0.833c-0.437-2.045-0.375-3.768 0.185-5.169v0c0.563-1.249 1.151-2.145 1.763-2.689 0.615-0.535 1.303-0.897 2.065-1.086 0.767-0.186 1.661-0.049 2.683 0.413v0l11.32 5.106-0.906 2.008-10.791-4.868c-0.759-0.342-1.417-0.445-1.975-0.309v0c-1.055 0.315-1.889 1.151-2.501 2.507v0c-0.522 1.318-0.716 2.87-0.58 4.657v0l12.423 5.604-0.902 1.999-15.38-6.938z" fill="#000000" data-fill-palette-color="primary"></path><path d="M13.584 125.901c0-1.548 1.255-2.803 2.803-2.803 1.548 0 2.803 1.255 2.803 2.803 0 1.548-1.255 2.803-2.803 2.803-1.548 0-2.803-1.255-2.803-2.803z" fill="#000000" data-fill-palette-color="primary"></path><path d="M232.337 125.901c0-1.548 1.255-2.803 2.802-2.803 1.548 0 2.803 1.255 2.803 2.803 0 1.548-1.255 2.803-2.803 2.803-1.548 0-2.803-1.255-2.802-2.803z" fill="#000000" data-fill-palette-color="primary"></path></g></svg></g></svg></g></svg></g><g></g></svg></g></svg></g><defs></defs></svg><rect width="247.2" height="247.2" fill="none" stroke="none" visibility="hidden"></rect></g></svg></g></svg>